{"glyphs":{"0":{"ha":896,"x_min":0,"x_max":0,"o":"m 447 -12 b 847 500 735 -12 847 238 b 447 1013 847 763 735 1013 b 49 500 161 1013 49 763 b 447 -12 49 238 161 -12 z m 447 929 b 653 500 622 929 653 724 b 447 71 653 276 624 71 b 243 500 274 71 243 276 b 447 929 243 724 274 929 z "},"1":{"ha":631,"x_min":0,"x_max":0,"o":"m 40 0 l 596 0 l 418 110 l 419 1042 l 369 1004 l 28 781 l 253 799 l 253 117 z "},"2":{"ha":724,"x_min":0,"x_max":0,"o":"m -31 0 l 542 0 l 588 -50 l 603 13 l 601 13 l 613 54 l 614 54 l 622 90 l 636 139 l 635 139 l 678 308 l 517 139 l 189 139 b 625 735 407 361 625 510 b 331 1018 625 894 499 1018 b 36 685 142 1018 17 896 b 261 882 58 811 153 882 b 439 674 343 882 439 819 b 97 139 429 483 303 358 z "},"3":{"ha":783,"x_min":0,"x_max":0,"o":"m 31 233 b 33 210 31 225 31 218 b 78 110 36 176 54 143 b 335 -14 125 43 207 -14 b 728 322 558 -14 728 121 b 489 600 728 447 635 574 b 660 807 575 633 660 703 b 382 1025 660 944 538 1025 b 89 764 197 1025 79 921 b 329 931 139 860 221 931 b 485 775 408 931 485 878 b 358 604 485 693 422 633 l 306 604 l 232 604 l 232 543 l 275 543 b 533 286 488 543 533 417 b 292 67 533 143 414 67 b 135 138 218 67 161 96 b 222 233 183 142 222 183 b 126 329 222 286 178 329 b 31 233 75 329 31 286 z "},"4":{"ha":819,"x_min":0,"x_max":0,"o":"m 24 308 l 24 263 l 472 263 l 472 119 l 257 0 l 785 0 l 638 103 l 638 263 l 776 263 l 776 363 l 638 363 l 639 1093 l 511 926 l 67 363 l 44 335 z m 154 363 l 472 758 l 472 363 z "},"5":{"ha":744,"x_min":0,"x_max":0,"o":"m 115 664 l 93 492 b 265 529 132 521 226 529 b 529 308 389 528 524 465 b 290 67 535 167 439 67 b 150 117 243 67 186 82 b 224 211 193 125 226 164 b 128 307 221 264 178 307 b 36 211 76 307 33 264 b 51 161 36 193 42 176 b 319 -14 82 81 167 -14 b 686 363 532 -14 693 131 b 301 689 679 585 508 682 b 186 682 271 689 226 688 l 207 846 l 647 846 l 671 999 l 689 1113 l 576 999 l 171 999 l 171 997 l 157 997 z "},"6":{"ha":779,"x_min":0,"x_max":0,"o":"m 432 621 b 261 560 375 621 310 599 b 339 739 281 636 310 693 b 638 1019 399 835 535 971 b 246 821 511 1035 336 918 b 49 389 174 743 49 563 b 392 -12 49 185 121 -12 b 738 338 579 -12 738 122 b 432 621 738 514 624 621 z m 239 367 b 240 428 239 388 239 408 b 385 540 264 510 322 540 b 547 288 492 540 547 435 b 406 57 547 139 497 57 b 239 367 246 57 239 228 z "},"7":{"ha":633,"x_min":0,"x_max":0,"o":"m 676 1018 l 13 1018 l 14 897 b 0 708 7 822 0 708 l 94 865 l 503 865 l 50 0 l 264 0 l 586 863 l 585 865 l 588 865 z "},"8":{"ha":774,"x_min":0,"x_max":0,"o":"m 58 239 b 390 -15 58 90 185 -15 b 722 267 560 -15 722 97 b 500 572 722 422 614 504 b 676 793 608 626 676 703 b 381 1028 676 926 561 1028 b 82 767 213 1028 82 893 b 240 504 82 632 153 560 b 58 239 135 451 58 360 z m 544 231 b 388 57 544 122 472 57 b 206 253 263 57 206 147 b 299 471 206 333 231 408 b 544 231 419 407 544 360 z m 243 833 b 382 964 243 908 303 964 b 542 783 493 964 542 864 b 442 606 542 728 506 663 b 243 833 336 667 243 726 z "},"9":{"ha":779,"x_min":0,"x_max":0,"o":"m 347 379 b 522 443 406 379 474 401 b 200 36 472 197 322 101 b 221 -14 138 3 165 -28 b 533 179 328 13 464 104 b 731 611 606 257 731 438 b 388 1013 731 815 658 1013 b 42 663 200 1013 42 878 b 347 379 42 486 156 379 z m 540 633 b 539 574 540 613 539 593 b 394 460 515 490 457 460 b 232 713 288 460 232 565 b 374 943 232 861 282 943 b 540 633 533 943 540 772 z "},"R":{"ha":1026,"x_min":0,"x_max":0,"o":"m 35 0 l 525 0 l 374 117 l 374 471 l 400 471 b 1047 -64 553 319 807 -62 l 650 481 b 906 751 853 535 906 640 b 618 999 906 882 799 999 b 288 997 471 999 288 997 l 35 997 l 179 885 l 179 111 z m 413 926 b 615 900 499 926 564 928 b 699 731 669 874 699 807 b 374 532 699 532 531 532 l 374 926 z "},"E":{"ha":986,"x_min":0,"x_max":0,"o":"m 911 624 l 883 997 l 35 997 l 179 885 l 179 111 l 35 0 l 903 0 l 958 401 l 736 86 l 374 86 l 374 467 l 553 467 l 683 272 l 683 746 l 553 551 l 374 551 l 374 918 l 678 918 z "},"S":{"ha":889,"x_min":0,"x_max":0,"o":"m 458 1018 b 111 733 271 1018 111 933 b 338 446 111 560 276 475 b 610 222 439 401 610 351 b 440 69 610 115 536 69 b 118 456 307 69 214 214 l 114 -15 l 224 61 b 454 -8 279 21 356 -8 b 778 268 660 -8 778 115 b 547 575 778 446 656 521 b 272 794 369 651 272 676 b 428 943 272 875 344 943 b 763 556 592 943 643 833 l 765 1029 l 656 951 b 458 1018 601 988 524 1018 z "},"N":{"ha":1132,"x_min":0,"x_max":0,"o":"m 1111 997 l 739 997 l 876 890 l 876 378 l 268 997 l 21 997 l 164 865 l 164 110 l 22 0 l 394 0 l 257 107 l 257 708 l 969 -21 l 969 888 z "},"T":{"ha":975,"x_min":0,"x_max":0,"o":"m 232 0 l 722 0 l 571 117 l 571 921 l 729 921 l 963 626 l 935 1000 l 15 1000 l -12 626 l 221 921 l 376 921 l 376 111 z "},"a":{"ha":738,"x_min":0,"x_max":0,"o":"m 461 474 b 231 314 463 353 331 338 b 63 139 144 293 63 236 b 232 -19 63 76 103 -19 b 463 107 324 -19 419 32 l 497 0 l 725 0 l 619 110 b 621 444 619 174 621 388 b 372 686 621 631 493 686 l 350 686 b 85 493 207 686 85 575 b 179 381 85 429 118 381 b 275 478 229 381 275 424 b 200 583 275 525 260 560 b 326 619 219 611 285 619 b 463 474 396 619 457 568 z m 299 85 b 228 151 263 85 228 110 b 331 269 228 204 256 236 b 461 357 376 288 428 314 l 458 189 b 299 85 428 115 349 85 z "},"n":{"ha":853,"x_min":0,"x_max":0,"o":"m 465 0 l 840 0 l 732 97 l 733 438 b 508 679 733 596 640 679 b 290 560 400 679 335 635 l 258 696 l 133 613 l 133 611 l 33 544 l 133 483 l 133 97 l 33 0 l 408 0 l 300 97 l 300 463 b 438 579 307 501 336 579 b 542 533 488 579 522 564 b 567 396 563 501 567 469 l 565 97 z "},"r":{"ha":578,"x_min":0,"x_max":0,"o":"m 33 0 l 408 0 l 300 97 l 300 361 b 376 557 306 444 325 504 b 481 458 382 494 428 458 b 578 571 531 458 578 506 b 474 679 578 644 521 679 b 296 519 393 679 328 611 l 258 696 l 133 613 l 133 611 l 33 544 l 133 483 l 133 97 z "},"t":{"ha":542,"x_min":0,"x_max":0,"o":"m 404 96 b 275 265 283 96 275 174 l 276 576 l 507 576 l 507 665 l 274 665 l 274 931 l 219 931 l 82 665 l 13 665 l 13 576 l 110 576 l 108 242 b 339 -14 108 83 183 -14 b 563 186 446 -14 557 49 b 404 96 515 125 458 96 z "},"e":{"ha":722,"x_min":0,"x_max":0,"o":"m 382 -14 b 675 256 528 -14 675 99 b 443 126 621 168 540 126 b 213 360 306 126 218 219 l 681 360 l 681 401 l 681 417 l 681 429 l 679 429 b 390 679 665 622 506 679 b 56 319 188 679 56 514 b 382 -14 56 149 167 -14 z m 369 614 b 503 429 457 614 503 539 l 213 429 b 369 614 214 547 294 614 z "},"s":{"ha":642,"x_min":0,"x_max":0,"o":"m 303 686 b 75 476 181 686 75 613 b 286 257 75 340 156 285 b 447 147 351 243 447 226 b 343 63 447 90 389 63 b 217 97 293 63 256 68 b 72 285 154 146 117 217 l 74 -25 l 178 26 b 340 -14 217 4 268 -14 b 572 200 499 -14 572 107 b 335 438 572 358 479 401 b 197 528 251 458 197 485 b 313 611 197 582 246 611 b 432 567 350 611 400 594 b 549 422 483 526 518 478 l 547 707 l 439 647 b 303 686 403 668 350 686 z "},"g":{"ha":735,"x_min":0,"x_max":0,"o":"m 74 446 b 319 215 74 317 172 231 l 235 161 l 144 119 l 144 75 b 283 19 163 67 221 44 b 28 -154 178 3 28 -47 b 343 -325 28 -267 175 -325 b 700 -96 550 -325 700 -214 b 599 51 700 -37 678 11 b 324 164 533 83 428 124 l 403 213 b 672 446 564 222 672 311 b 447 675 672 569 588 656 b 426 719 439 688 432 703 b 411 790 418 743 413 767 b 467 775 426 781 446 775 b 571 879 525 775 571 821 b 467 983 571 938 525 983 b 383 942 432 983 401 967 b 354 850 364 919 354 888 b 396 679 354 813 364 736 l 386 679 b 74 446 208 679 74 588 z m 181 -132 b 353 -7 182 -86 260 -18 l 438 -43 b 551 -158 488 -67 551 -100 b 367 -267 551 -221 474 -267 b 181 -132 267 -267 178 -207 z m 256 446 b 374 621 256 556 290 621 b 492 446 457 621 492 556 b 374 272 492 338 457 272 b 256 446 290 272 256 338 z "},"f":{"ha":482,"x_min":0,"x_max":0,"o":"m 472 576 l 472 665 l 314 665 b 176 826 233 693 176 778 b 251 901 176 874 201 901 b 367 758 296 901 349 831 l 489 904 b 278 1047 435 1015 342 1047 b 78 840 167 1047 78 974 b 140 665 78 769 110 706 l 33 665 l 33 576 l 140 576 l 140 97 l 40 0 l 415 0 l 307 97 l 307 576 z "},"l":{"ha":428,"x_min":0,"x_max":0,"o":"m 28 0 l 403 0 l 294 97 l 296 1042 l 29 864 l 129 815 l 129 99 z "},"h":{"ha":840,"x_min":0,"x_max":0,"o":"m 425 579 b 529 533 475 579 510 564 b 554 396 550 501 554 469 l 553 97 l 453 0 l 828 0 l 719 97 l 721 438 b 496 679 721 596 628 679 b 288 576 396 679 332 642 l 289 1042 l 22 864 l 122 815 l 122 99 l 21 0 l 396 0 l 288 97 l 288 465 b 425 579 296 504 326 579 z "},"u":{"ha":829,"x_min":0,"x_max":0,"o":"m 701 707 l 617 654 l 617 656 l 435 544 l 535 493 l 535 192 b 407 88 526 153 500 88 b 278 276 304 88 279 160 l 279 707 l 194 654 l 194 656 l 13 544 l 111 494 l 111 226 b 333 -15 111 68 201 -15 b 544 101 440 -15 501 28 l 576 -32 l 801 81 l 701 150 z "},"i":{"ha":424,"x_min":0,"x_max":0,"o":"m 33 0 l 407 0 l 300 97 l 300 707 l 215 656 l 133 606 l 33 544 l 133 493 l 133 97 z m 119 889 b 225 783 119 831 167 783 b 331 889 282 783 331 831 b 225 994 331 946 282 994 b 119 889 167 994 119 946 z "},"b":{"ha":843,"x_min":0,"x_max":0,"o":"m 111 -56 l 226 32 b 401 -18 281 -6 346 -18 b 786 340 629 -18 786 154 b 483 676 786 571 632 676 b 276 583 410 676 326 649 l 278 1042 l 11 864 l 111 815 z m 390 553 b 614 276 514 553 614 464 b 431 51 614 150 543 51 b 276 240 333 51 278 111 l 276 519 b 390 553 317 550 363 553 z "},"c":{"ha":715,"x_min":0,"x_max":0,"o":"m 388 -14 b 674 257 526 -14 674 100 b 444 126 628 165 531 126 b 213 389 310 126 213 219 b 403 614 213 522 299 614 b 454 479 486 614 454 535 b 553 378 454 410 501 378 b 653 485 617 378 653 429 b 418 679 653 597 549 679 b 56 311 207 679 56 533 b 388 -14 56 126 188 -14 z "},"d":{"ha":860,"x_min":0,"x_max":0,"o":"m 360 -18 b 574 88 438 -18 526 14 l 607 -32 l 832 81 l 732 150 l 732 1042 l 682 1007 l 682 1008 l 465 864 l 565 815 l 565 653 b 442 676 524 669 481 676 b 57 318 214 676 57 504 b 360 -18 57 88 211 -18 z m 453 106 b 229 382 329 106 229 194 b 413 607 229 508 300 607 b 565 451 501 607 556 557 l 565 138 b 453 106 526 108 481 106 z "},"H":{"ha":1176,"x_min":0,"x_max":0,"o":"m 651 0 l 1142 0 l 990 117 l 990 879 l 1142 997 l 651 997 l 796 885 l 796 544 l 374 544 l 374 879 l 525 997 l 35 997 l 179 885 l 179 111 l 35 0 l 525 0 l 374 117 l 374 465 l 796 465 l 796 111 z "},"I":{"ha":560,"x_min":0,"x_max":0,"o":"m 525 997 l 35 997 l 179 885 l 179 111 l 35 0 l 525 0 l 374 117 l 374 879 z "},"F":{"ha":883,"x_min":0,"x_max":0,"o":"m 35 0 l 525 0 l 374 117 l 374 453 l 553 453 l 683 258 l 683 732 l 553 538 l 374 538 l 374 918 l 678 918 l 911 624 l 883 997 l 35 997 l 179 885 l 179 111 z "},"O":{"ha":1126,"x_min":0,"x_max":0,"o":"m 1063 499 b 563 1026 1061 796 879 1026 b 63 496 263 1026 63 810 b 563 -32 63 172 258 -28 b 1063 499 868 -26 1064 175 z m 563 944 b 844 497 768 943 844 721 b 563 50 844 272 768 50 b 281 497 356 50 281 271 b 563 944 281 722 357 946 z "},"B":{"ha":1008,"x_min":0,"x_max":0,"o":"m 35 0 l 608 0 b 939 258 833 0 939 125 b 657 517 939 425 815 504 b 883 765 836 572 883 660 b 596 999 883 896 776 999 b 288 997 449 999 288 997 l 35 997 l 179 885 l 179 111 z m 446 475 b 732 265 628 475 732 400 b 504 71 732 132 622 74 l 374 71 l 374 475 z m 390 926 b 593 900 476 926 542 928 b 676 731 647 874 676 807 b 374 546 676 554 524 546 l 374 926 z "},"A":{"ha":1039,"x_min":0,"x_max":0,"o":"m -22 0 l 308 0 l 189 92 l 269 290 l 614 290 l 683 104 l 549 0 l 1011 0 l 908 89 l 544 1010 l 471 1010 l 94 113 z m 449 732 l 585 369 l 301 369 z "},"C":{"ha":1040,"x_min":0,"x_max":0,"o":"m 943 410 b 572 67 871 306 768 67 b 288 511 374 67 288 272 b 569 924 288 750 403 924 b 943 581 749 924 821 769 l 943 1032 l 804 924 b 576 1019 735 988 646 1019 b 69 468 272 1019 69 818 b 542 -25 69 188 254 -25 b 797 72 633 -25 721 0 l 943 -42 z "},"V":{"ha":1149,"x_min":0,"x_max":0,"o":"m 1149 997 l 776 997 l 900 900 l 636 263 l 367 901 l 490 997 l 0 997 l 143 886 l 582 -72 l 625 29 l 636 60 l 983 869 z "},"P":{"ha":907,"x_min":0,"x_max":0,"o":"m 35 0 l 525 0 l 374 117 l 374 413 b 539 407 396 410 444 407 b 897 724 767 407 897 557 b 568 999 897 868 774 999 b 288 997 442 999 288 997 l 35 997 l 179 885 l 179 111 z m 404 926 b 607 900 490 926 556 928 b 690 703 661 868 690 793 b 374 476 690 481 529 476 l 374 926 z "},"Q":{"ha":1154,"x_min":0,"x_max":0,"o":"m 1083 499 b 576 1026 1082 796 896 1026 b 69 496 274 1026 69 810 b 576 -32 69 172 269 -28 b 644 -26 600 -31 622 -29 b 1021 -317 788 -169 857 -278 l 858 44 b 1083 499 1000 132 1083 289 z m 576 944 b 865 497 785 943 865 721 b 576 50 865 272 785 50 b 288 497 367 50 288 271 b 576 944 288 722 368 946 z "},"p":{"ha":863,"x_min":0,"x_max":0,"o":"m 503 676 b 289 572 425 676 336 644 l 256 696 l 131 613 l 131 611 l 31 544 l 131 483 l 131 -214 l 31 -312 l 406 -312 l 297 -214 l 297 4 b 421 -18 338 -11 382 -18 b 806 340 649 -18 806 154 b 503 676 806 571 651 676 z m 410 553 b 633 276 533 553 633 464 b 450 51 633 150 563 51 b 297 207 361 51 307 100 l 297 519 b 410 553 336 550 382 553 z "},"m":{"ha":1233,"x_min":0,"x_max":0,"o":"m 438 0 l 813 0 l 704 97 l 706 438 l 706 443 b 829 576 706 443 710 576 b 947 388 921 576 946 504 l 946 97 l 846 0 l 1221 0 l 1113 97 l 1114 438 b 903 679 1114 596 1026 679 b 689 544 793 679 731 629 b 494 679 657 633 586 679 b 289 563 393 679 331 636 l 258 696 l 133 613 l 133 611 l 33 544 l 133 483 l 133 97 l 33 0 l 408 0 l 300 97 l 300 465 b 421 576 307 503 331 576 b 539 388 513 576 538 504 l 538 97 z "},"q":{"ha":833,"x_min":0,"x_max":0,"o":"m 360 -18 b 565 75 432 -18 517 10 l 565 -249 l 465 -347 l 640 -347 l 640 -346 l 651 -346 l 651 -347 l 840 -347 l 732 -249 l 732 706 l 611 629 b 442 676 558 665 494 676 b 57 318 214 676 57 504 b 360 -18 57 88 211 -18 z m 453 106 b 229 382 329 106 229 194 b 413 607 229 508 300 607 b 567 414 511 607 567 546 l 565 139 b 453 106 526 108 481 106 z "},"j":{"ha":415,"x_min":0,"x_max":0,"o":"m 35 -325 b 308 0 146 -325 308 -260 l 308 707 l 224 656 l 142 606 l 42 544 l 142 501 l 142 -19 b 35 -325 140 -228 89 -258 z m 133 889 b 239 783 133 831 181 783 b 344 889 296 783 344 831 b 239 994 344 946 296 994 b 133 889 181 994 133 946 z "},"v":{"ha":726,"x_min":0,"x_max":0,"o":"m 794 665 l 610 665 l 608 661 l 608 665 l 475 665 l 567 567 l 411 213 l 253 586 l 349 665 l -68 665 l 75 557 l 358 -60 l 386 3 l 388 1 l 640 551 z "},"k":{"ha":785,"x_min":0,"x_max":0,"o":"m 21 0 l 396 0 l 288 97 l 288 322 l 315 322 l 324 310 l 326 311 l 533 56 l 478 1 l 825 1 l 714 100 l 457 414 l 704 610 l 776 665 l 454 665 l 533 561 l 332 399 l 288 399 l 289 1042 l 22 864 l 122 815 l 122 99 z "},"o":{"ha":811,"x_min":0,"x_max":0,"o":"m 756 333 b 406 679 754 529 624 679 b 56 331 199 679 56 539 b 406 -14 56 117 196 -11 b 756 333 615 -10 756 118 z m 406 614 b 563 332 528 613 563 479 b 406 53 563 183 528 53 b 249 332 282 53 249 183 b 406 614 249 481 282 615 z "},"D":{"ha":1119,"x_min":0,"x_max":0,"o":"m 35 0 l 256 0 b 497 -3 256 0 260 -3 b 1050 496 869 -3 1050 219 b 508 997 1050 850 785 997 l 35 997 l 179 885 l 179 111 z m 468 919 b 828 482 717 919 828 729 b 496 76 828 236 724 76 l 374 76 l 374 919 z "},"M":{"ha":1424,"x_min":0,"x_max":0,"o":"m 899 0 l 1389 0 l 1238 117 l 1238 878 l 1386 997 l 1043 997 l 697 289 l 356 997 l 22 997 l 163 882 l 163 110 l 21 0 l 393 0 l 249 113 l 249 796 l 643 -17 l 693 85 l 729 163 l 1043 817 l 1043 111 z "},"L":{"ha":1003,"x_min":0,"x_max":0,"o":"m 524 997 l 35 997 l 179 885 l 179 111 l 35 0 l 906 0 l 939 393 l 713 86 l 374 86 l 374 881 z "},"J":{"ha":525,"x_min":0,"x_max":0,"o":"m 513 997 l 22 997 l 167 885 l 167 51 b 40 -311 164 -196 104 -233 b 361 74 172 -311 361 -235 l 361 879 z "},"K":{"ha":1032,"x_min":0,"x_max":0,"o":"m 1039 999 l 678 999 l 750 886 l 374 494 l 374 879 l 525 997 l 35 997 l 179 885 l 179 111 l 35 0 l 525 0 l 374 117 l 374 390 l 440 457 l 586 276 b 1071 -64 706 126 911 -64 l 597 618 l 815 840 z "},"U":{"ha":1118,"x_min":0,"x_max":0,"o":"m 1108 997 l 736 997 l 871 892 l 872 444 b 615 72 872 172 774 72 b 367 368 413 72 367 204 l 367 890 l 504 997 l 14 997 l 158 885 l 158 397 b 574 -36 158 146 250 -36 b 974 431 896 -36 974 200 l 974 893 z "},"W":{"ha":1554,"x_min":0,"x_max":0,"o":"m 1575 1001 l 1239 1001 l 1346 908 l 1128 293 l 915 892 l 1050 1001 l 593 1001 l 699 910 l 731 828 l 549 300 l 324 907 l 433 1001 l -10 1001 l 118 890 l 501 -72 l 540 29 l 593 181 l 779 703 l 1078 -72 l 1115 29 l 1428 875 z "},"X":{"ha":1057,"x_min":0,"x_max":0,"o":"m 0 1 l 372 1 l 247 97 l 481 411 l 690 96 l 567 0 l 1057 0 l 885 132 l 606 553 l 842 878 l 1018 997 l 646 997 l 758 894 l 563 618 l 375 900 l 499 997 l 8 997 l 179 864 l 436 479 l 181 150 l 163 126 z "},"Y":{"ha":1019,"x_min":0,"x_max":0,"o":"m 285 0 l 775 0 l 624 117 l 624 397 l 921 896 l 1051 997 l 679 997 l 819 888 l 590 485 l 363 897 l 490 997 l 0 997 l 153 878 l 429 376 l 429 111 z "}," ":{"ha":417,"x_min":0,"x_max":0,"o":""},"w":{"ha":1108,"x_min":0,"x_max":0,"o":"m 1163 665 l 869 665 l 950 571 l 815 224 l 681 588 l 768 665 l 429 665 l 510 571 l 375 225 l 240 588 l 328 665 l -54 665 l 74 558 l 329 -61 l 410 133 l 550 475 l 771 -61 l 850 131 l 1022 553 z "},"x":{"ha":757,"x_min":0,"x_max":0,"o":"m -12 0 l 307 0 l 226 92 l 338 250 l 468 68 l 390 0 l 779 0 l 635 117 l 450 371 l 614 564 l 757 665 l 600 665 l 597 663 l 599 665 l 438 665 l 522 569 l 408 429 l 288 596 l 367 665 l -22 665 l 133 538 l 294 311 l 121 94 z "},"y":{"ha":731,"x_min":0,"x_max":0,"o":"m 794 665 l 610 665 l 608 663 l 608 665 l 475 665 l 565 567 l 408 214 l 243 579 l 349 665 l -68 665 l 75 557 l 321 19 l 288 -56 b 176 -169 269 -86 235 -169 b 92 -39 132 -169 78 -142 l -64 -218 b 119 -329 -28 -292 26 -329 b 353 -99 235 -329 301 -221 l 643 553 z "},"z":{"ha":725,"x_min":0,"x_max":0,"o":"m 39 0 l 642 0 l 642 7 l 696 300 l 521 69 l 271 69 l 683 665 l 97 665 l 28 379 l 210 596 l 439 596 z "},"Z":{"ha":994,"x_min":0,"x_max":0,"o":"m 18 0 l 886 0 l 886 11 l 940 450 l 733 101 l 301 101 l 890 997 l 118 997 l 90 589 l 274 904 l 599 904 z "},",":{"ha":418,"x_min":0,"x_max":0,"o":"m 203 -40 b 131 -197 203 -110 154 -165 b 126 -222 124 -206 124 -217 b 163 -221 129 -226 144 -231 b 339 72 197 -199 339 -92 b 215 225 339 168 276 225 b 97 114 144 225 97 174 b 165 10 97 39 151 18 b 203 -40 176 8 203 -6 z "},".":{"ha":418,"x_min":0,"x_max":0,"o":"m 90 104 b 208 -14 90 39 143 -14 b 328 104 275 -14 328 39 b 208 224 328 171 275 224 b 90 104 143 224 90 171 z "},"´":{"ha":1157,"x_min":0,"x_max":0,"o":"m 474 1004 b 318 764 436 954 342 799 l 342 739 l 646 968 l 626 1010 l 478 1010 z "},"é":{"ha":740,"x_min":0,"x_max":0,"o":"m 379 -14 b 672 256 525 -14 672 99 b 440 126 618 168 538 126 b 210 360 303 126 215 219 l 678 360 l 678 429 l 676 429 b 388 679 663 622 503 679 b 53 319 185 679 53 514 b 379 -14 53 149 164 -14 z m 367 614 b 500 429 454 614 500 539 l 210 429 b 367 614 211 547 292 614 z m 454 1004 b 299 764 417 954 322 799 l 322 739 l 626 968 l 607 1010 l 458 1010 z "},"`":{"ha":1157,"x_min":0,"x_max":0,"o":"m 460 1010 l 311 1010 l 292 968 l 596 739 l 619 764 b 464 1004 596 799 501 954 z "},"è":{"ha":740,"x_min":0,"x_max":0,"o":"m 379 -14 b 672 256 525 -14 672 99 b 440 126 618 168 538 126 b 210 360 303 126 215 219 l 678 360 l 678 401 l 678 417 l 678 429 l 676 429 b 388 679 663 622 503 679 b 53 319 185 679 53 514 b 379 -14 53 149 164 -14 z m 367 614 b 500 429 454 614 500 539 l 210 429 b 367 614 211 547 292 614 z m 374 1010 l 225 1010 l 206 968 l 510 739 l 533 764 b 378 1004 510 799 415 954 z "},"á":{"ha":758,"x_min":0,"x_max":0,"o":"m 461 474 b 231 314 463 353 331 338 b 63 139 144 293 63 236 b 232 -19 63 76 103 -19 b 463 107 324 -19 419 32 l 497 0 l 725 0 l 619 110 b 621 444 619 174 621 388 b 372 686 621 631 493 686 l 350 686 b 85 493 207 686 85 575 b 179 381 85 429 118 381 b 275 478 229 381 275 424 b 200 583 275 525 260 560 b 326 619 219 611 285 619 b 463 474 396 619 457 568 z m 299 85 b 228 151 263 85 228 110 b 331 269 228 204 256 236 b 461 357 376 288 428 314 l 458 189 b 299 85 428 115 349 85 z m 476 1004 b 321 764 439 954 344 799 l 344 739 l 649 968 l 629 1010 l 481 1010 z "},"à":{"ha":758,"x_min":0,"x_max":0,"o":"m 461 474 b 231 314 463 353 331 338 b 63 139 144 293 63 236 b 232 -19 63 76 103 -19 b 463 107 324 -19 419 32 l 497 0 l 725 0 l 619 110 b 621 444 619 174 621 388 b 372 686 621 631 493 686 l 350 686 b 85 493 207 686 85 575 b 179 381 85 429 118 381 b 275 478 229 381 275 424 b 200 583 275 525 260 560 b 326 619 219 611 285 619 b 463 474 396 619 457 568 z m 299 85 b 228 151 263 85 228 110 b 331 269 228 204 256 236 b 461 357 376 288 428 314 l 458 189 b 299 85 428 115 349 85 z m 379 1010 l 231 1010 l 211 968 l 515 739 l 539 764 b 383 1004 515 799 421 954 z "},"ù":{"ha":844,"x_min":0,"x_max":0,"o":"m 717 707 l 632 654 l 632 656 l 450 544 l 550 493 l 550 192 b 422 88 542 153 515 88 b 293 276 319 88 294 160 l 294 707 l 210 654 l 210 656 l 28 544 l 126 494 l 126 226 b 349 -15 126 68 217 -15 b 560 101 456 -15 517 28 l 592 -32 l 817 81 l 717 150 z m 422 1010 l 274 1010 l 254 968 l 558 739 l 582 764 b 426 1004 558 799 464 954 z "},"ú":{"ha":844,"x_min":0,"x_max":0,"o":"m 717 707 l 632 654 l 632 656 l 450 544 l 550 493 l 550 192 b 422 88 542 153 515 88 b 293 276 319 88 294 160 l 294 707 l 210 654 l 210 656 l 28 544 l 126 494 l 126 226 b 349 -15 126 68 217 -15 b 560 101 456 -15 517 28 l 592 -32 l 817 81 l 717 150 z m 492 1004 b 336 764 454 954 360 799 l 360 739 l 664 968 l 644 1010 l 496 1010 z "},"”":{"ha":650,"x_min":0,"x_max":0,"o":"m 175 733 b 103 576 175 664 126 608 b 99 551 96 568 96 557 b 135 553 101 547 117 543 b 311 846 169 575 311 682 b 188 999 311 942 249 999 b 69 888 117 999 69 947 b 138 783 69 813 124 792 b 175 733 149 782 175 768 z m 472 733 b 400 576 472 664 424 608 b 396 551 393 568 393 557 b 432 553 399 547 414 543 b 608 846 467 575 608 682 b 485 999 608 942 546 999 b 367 888 414 999 367 947 b 435 783 367 813 421 792 b 472 733 446 782 472 768 z "},"“":{"ha":650,"x_min":0,"x_max":0,"o":"m 475 829 b 547 986 475 899 524 954 b 551 1011 554 994 554 1006 b 515 1010 549 1015 533 1019 b 339 717 481 988 339 881 b 463 564 339 621 401 564 b 581 675 533 564 581 615 b 513 779 581 750 526 771 b 475 829 501 781 475 794 z m 178 829 b 250 986 178 899 226 954 b 254 1011 257 994 257 1006 b 218 1010 251 1015 236 1019 b 42 717 183 988 42 881 b 165 564 42 621 104 564 b 283 675 236 564 283 615 b 215 779 283 750 229 771 b 178 829 204 781 178 794 z "},"!":{"ha":407,"x_min":0,"x_max":0,"o":"m 90 914 b 93 888 90 904 90 896 l 183 304 l 224 304 l 314 888 b 317 914 315 896 317 904 b 203 1028 317 976 265 1028 b 90 914 140 1028 90 976 z m 96 93 b 203 -14 96 33 143 -14 b 311 93 263 -14 311 33 b 203 201 311 153 263 201 b 96 93 143 201 96 153 z "},"?":{"ha":708,"x_min":0,"x_max":0,"o":"m 57 833 b 164 719 57 760 104 719 b 272 826 224 719 272 767 b 176 931 272 886 222 931 b 282 968 197 958 239 968 b 472 793 383 968 471 908 b 242 601 472 706 421 604 l 274 304 l 307 304 l 351 499 b 650 774 554 519 650 651 b 354 1029 650 960 479 1029 l 331 1029 b 57 833 183 1029 57 915 z m 183 93 b 290 -14 183 33 231 -14 b 399 93 350 -14 399 33 b 290 201 399 153 350 201 b 183 93 231 201 183 153 z "},"-":{"ha":535,"x_min":0,"x_max":0,"o":"m 83 306 l 451 306 l 451 400 l 83 400 z "},"(":{"ha":538,"x_min":0,"x_max":0,"o":"m 451 1142 b 111 443 268 988 111 706 b 451 -256 111 185 254 -83 l 496 -206 b 279 443 339 -31 279 229 b 496 1092 279 657 339 917 z "},")":{"ha":538,"x_min":0,"x_max":0,"o":"m 42 1092 b 258 443 199 917 258 657 b 42 -206 258 229 199 -31 l 86 -256 b 426 443 283 -83 426 185 b 86 1142 426 706 269 988 z "},":":{"ha":432,"x_min":0,"x_max":0,"o":"m 97 106 b 215 -14 97 39 150 -14 b 335 106 282 -14 335 39 b 215 225 335 171 282 225 b 97 106 150 225 97 171 z m 97 558 b 215 440 97 493 150 440 b 335 558 282 440 335 493 b 215 679 335 625 282 679 b 97 558 150 679 97 625 z "},";":{"ha":432,"x_min":0,"x_max":0,"o":"m 97 560 b 215 442 97 494 150 442 b 335 560 282 442 335 494 b 215 679 335 626 282 679 b 97 560 150 679 97 626 z m 203 -40 b 131 -197 203 -110 154 -165 b 126 -222 124 -206 124 -217 b 163 -221 129 -226 144 -231 b 339 72 197 -199 339 -92 b 215 225 339 168 276 225 b 97 114 144 225 97 174 b 165 10 97 39 151 18 b 203 -40 176 8 203 -6 z "},"’":{"ha":353,"x_min":0,"x_max":0,"o":"m 175 733 b 103 576 175 664 126 608 b 99 551 96 568 96 557 b 135 553 101 547 117 543 b 311 846 169 575 311 682 b 188 999 311 942 249 999 b 69 888 117 999 69 947 b 138 783 69 813 124 792 b 175 733 149 782 175 768 z "},"«":{"ha":665,"x_min":0,"x_max":0,"o":"m 282 582 l 36 328 l 285 72 l 339 72 l 203 328 l 339 582 z m 554 582 l 307 328 l 556 72 l 610 72 l 474 328 l 610 582 z "},"ý":{"ha":731,"x_min":0,"x_max":0,"o":"m 349 665 l -68 665 l 75 557 l 321 19 l 288 -56 b 176 -169 269 -86 235 -169 b 92 -39 132 -169 78 -142 l -64 -218 b 119 -329 -28 -292 26 -329 b 353 -99 235 -329 301 -221 l 643 553 l 794 665 l 610 665 l 608 663 l 608 665 l 475 665 l 565 567 l 408 214 l 243 579 z m 521 1004 b 365 764 483 954 389 799 l 389 739 l 693 968 l 674 1010 l 525 1010 z "},"‘":{"ha":353,"x_min":0,"x_max":0,"o":"m 178 829 b 250 986 178 899 226 954 b 254 1011 257 994 257 1006 b 218 1010 251 1015 236 1019 b 42 717 183 988 42 881 b 165 564 42 621 104 564 b 283 675 236 564 283 615 b 215 779 283 750 229 771 b 178 829 204 781 178 794 z "},"»":{"ha":665,"x_min":0,"x_max":0,"o":"m 326 582 l 463 328 l 326 72 l 381 72 l 629 328 l 383 582 z m 56 582 l 192 328 l 56 72 l 110 72 l 358 328 l 111 582 z "},"&":{"ha":1117,"x_min":0,"x_max":0,"o":"m 750 0 l 1139 0 l 1018 99 b 793 306 986 129 896 213 l 961 575 l 1089 665 l 932 665 l 929 661 l 931 665 l 769 665 l 868 554 l 749 346 l 504 567 b 694 807 621 626 694 714 b 438 1028 694 940 593 1028 b 156 781 278 1028 156 907 b 283 542 156 668 226 593 l 303 524 b 63 239 172 476 63 376 b 381 -15 63 90 175 -15 b 707 167 550 -15 643 79 l 825 67 z m 447 71 b 251 267 322 71 251 161 b 343 488 251 356 275 425 b 658 208 449 393 547 304 b 447 71 615 147 542 71 z m 394 668 b 317 833 349 711 317 764 b 439 964 317 908 368 964 b 560 797 507 964 560 904 b 458 608 560 742 524 669 b 394 668 432 632 410 653 z "},"/":{"ha":506,"x_min":0,"x_max":0,"o":"m -18 17 l 76 -17 l 517 1011 l 422 1044 z "},"@":{"ha":1138,"x_min":0,"x_max":0,"o":"m 499 190 b 642 264 549 190 606 211 b 756 188 654 218 699 188 b 1089 576 863 188 1089 253 b 671 972 1089 868 858 972 b 49 376 372 972 49 754 b 476 -24 49 176 197 -24 b 846 58 578 -24 722 -10 l 829 97 b 558 33 771 67 639 33 b 193 400 317 33 193 232 b 661 917 193 822 508 918 b 958 561 815 915 958 779 b 804 250 958 328 865 250 b 764 336 753 250 760 310 b 765 353 764 342 765 347 l 767 353 l 774 383 b 775 388 774 385 774 386 l 774 388 l 850 749 l 756 718 b 656 768 729 757 689 768 b 332 474 493 768 361 632 b 499 190 293 274 396 190 z m 575 275 b 474 481 519 275 451 325 b 644 707 494 589 557 707 b 700 631 667 707 690 682 l 651 410 b 638 296 644 382 638 317 l 638 293 b 575 275 618 278 599 275 z "},"ˆ":{"ha":1157,"x_min":0,"x_max":0,"o":"m 775 786 l 549 1019 l 321 785 l 342 756 l 549 867 l 750 756 z "},"â":{"ha":758,"x_min":0,"x_max":0,"o":"m 461 474 b 231 314 463 353 331 338 b 63 139 144 293 63 236 b 232 -19 63 76 103 -19 b 463 107 324 -19 419 32 l 497 0 l 725 0 l 619 110 b 621 444 619 174 621 388 b 372 686 621 631 493 686 l 350 686 b 85 493 207 686 85 575 b 179 381 85 429 118 381 b 275 478 229 381 275 424 b 200 583 275 525 260 560 b 326 619 219 611 285 619 b 463 474 396 619 457 568 z m 607 786 l 381 1019 l 153 785 l 174 756 l 381 867 l 582 756 z m 299 85 b 228 151 263 85 228 110 b 331 269 228 204 256 236 b 461 357 376 288 428 314 l 458 189 b 299 85 428 115 349 85 z "},"ê":{"ha":740,"x_min":0,"x_max":0,"o":"m 379 -14 b 672 256 525 -14 672 99 b 440 126 618 168 538 126 b 210 360 303 126 215 219 l 678 360 l 678 429 l 676 429 b 388 679 663 622 503 679 b 53 319 185 679 53 514 b 379 -14 53 149 164 -14 z m 624 786 l 397 1019 l 169 785 l 190 756 l 397 867 l 599 756 z m 367 614 b 500 429 454 614 500 539 l 210 429 b 367 614 211 547 292 614 z "},"û":{"ha":844,"x_min":0,"x_max":0,"o":"m 717 707 l 632 654 l 632 656 l 450 544 l 550 493 l 550 192 b 422 88 542 153 515 88 b 293 276 319 88 294 160 l 294 707 l 210 654 l 210 656 l 28 544 l 126 494 l 126 226 b 349 -15 126 68 217 -15 b 560 101 456 -15 517 28 l 592 -32 l 817 81 l 717 150 z m 650 786 l 424 1019 l 196 785 l 217 756 l 424 867 l 625 756 z "},"É":{"ha":1028,"x_min":0,"x_max":0,"o":"m 911 624 l 883 997 l 35 997 l 179 885 l 179 111 l 35 0 l 903 0 l 958 401 l 736 86 l 374 86 l 374 467 l 553 467 l 683 272 l 683 746 l 553 551 l 374 551 l 374 918 l 678 918 z m 406 1096 l 429 1071 l 817 1258 l 797 1301 l 621 1301 z "},"È":{"ha":1028,"x_min":0,"x_max":0,"o":"m 35 0 l 903 0 l 958 401 l 736 86 l 374 86 l 374 467 l 553 467 l 683 272 l 683 746 l 553 551 l 374 551 l 374 918 l 678 918 l 911 624 l 883 997 l 35 997 l 179 885 l 179 111 z m 449 1301 l 272 1301 l 253 1258 l 640 1071 l 664 1096 z "},"Ê":{"ha":1028,"x_min":0,"x_max":0,"o":"m 35 0 l 903 0 l 958 401 l 736 86 l 374 86 l 374 467 l 553 467 l 683 272 l 683 746 l 553 551 l 374 551 l 374 918 l 678 918 l 911 624 l 883 997 l 35 997 l 179 885 l 179 111 z m 769 1099 l 515 1332 l 260 1097 l 281 1068 l 515 1179 l 744 1068 z "},"¸":{"ha":1157,"x_min":0,"x_max":0,"o":"m 274 0 l 204 0 l 100 -140 b 199 -231 161 -153 199 -189 b 21 -335 199 -321 85 -325 b 118 -369 46 -360 81 -369 b 338 -214 203 -369 338 -331 b 213 -78 338 -147 276 -94 z "},"ç":{"ha":725,"x_min":0,"x_max":0,"o":"m 406 -12 b 669 257 538 -1 669 108 b 440 126 624 165 526 126 b 208 389 306 126 208 219 b 399 614 208 522 294 614 b 450 479 482 614 450 535 b 549 378 450 410 497 378 b 649 485 613 378 649 429 b 414 679 649 597 544 679 b 51 311 203 679 51 533 b 339 -11 51 140 164 7 l 243 -140 b 342 -231 304 -153 342 -189 b 164 -335 342 -321 228 -325 b 261 -369 189 -360 224 -369 b 481 -214 346 -369 481 -331 b 356 -78 481 -147 419 -94 z "},"¨":{"ha":1157,"x_min":0,"x_max":0,"o":"m 193 894 b 278 810 193 847 231 810 b 364 894 325 810 364 847 b 278 981 364 942 325 981 b 193 894 231 981 193 942 z m 444 894 b 529 810 444 847 482 810 b 615 894 576 810 615 847 b 529 981 615 942 576 981 b 444 894 482 981 444 942 z "},"ë":{"ha":740,"x_min":0,"x_max":0,"o":"m 379 -14 b 672 256 525 -14 672 99 b 440 126 618 168 538 126 b 210 360 303 126 215 219 l 678 360 l 678 401 l 678 417 l 678 429 l 676 429 b 388 679 663 622 503 679 b 53 319 185 679 53 514 b 379 -14 53 149 164 -14 z m 367 614 b 500 429 454 614 500 539 l 210 429 b 367 614 211 547 292 614 z m 176 894 b 261 810 176 847 214 810 b 347 894 308 810 347 847 b 261 981 347 942 308 981 b 176 894 214 981 176 942 z m 428 894 b 513 810 428 847 465 810 b 599 894 560 810 599 847 b 513 981 599 942 560 981 b 428 894 465 981 428 942 z "},"ä":{"ha":758,"x_min":0,"x_max":0,"o":"m 461 474 b 231 314 463 353 331 338 b 63 139 144 293 63 236 b 232 -19 63 76 103 -19 b 463 107 324 -19 419 32 l 497 0 l 725 0 l 619 110 b 621 444 619 174 621 388 b 372 686 621 631 493 686 l 350 686 b 85 493 207 686 85 575 b 179 381 85 429 118 381 b 275 478 229 381 275 424 b 200 583 275 525 260 560 b 326 619 219 611 285 619 b 463 474 396 619 457 568 z m 299 85 b 228 151 263 85 228 110 b 331 269 228 204 256 236 b 461 357 376 288 428 314 l 458 189 b 299 85 428 115 349 85 z m 168 894 b 253 810 168 847 206 810 b 339 894 300 810 339 847 b 253 981 339 942 300 981 b 168 894 206 981 168 942 z m 419 894 b 504 810 419 847 457 810 b 590 894 551 810 590 847 b 504 981 590 942 551 981 b 419 894 457 981 419 942 z "},"ı":{"ha":442,"x_min":0,"x_max":0,"o":"m 47 0 l 421 0 l 314 97 l 314 707 l 229 656 l 147 606 l 47 544 l 147 493 l 147 97 z "},"í":{"ha":442,"x_min":0,"x_max":0,"o":"m 47 0 l 421 0 l 314 97 l 314 707 l 229 656 l 147 606 l 47 544 l 147 493 l 147 97 z m 338 1004 b 182 764 300 954 206 799 l 206 739 l 510 968 l 490 1010 l 342 1010 z "},"ì":{"ha":442,"x_min":0,"x_max":0,"o":"m 47 0 l 421 0 l 314 97 l 314 707 l 229 656 l 147 606 l 47 544 l 147 493 l 147 97 z m 169 1010 l 21 1010 l 1 968 l 306 739 l 329 764 b 174 1004 306 799 211 954 z "},"î":{"ha":442,"x_min":0,"x_max":0,"o":"m 47 0 l 421 0 l 314 97 l 314 707 l 229 656 l 147 606 l 47 544 l 147 493 l 147 97 z m 463 786 l 236 1019 l 8 785 l 29 756 l 236 867 l 438 756 z "},"ï":{"ha":442,"x_min":0,"x_max":0,"o":"m 47 0 l 421 0 l 314 97 l 314 707 l 229 656 l 147 606 l 47 544 l 147 493 l 147 97 z m 24 894 b 108 810 24 847 61 810 b 194 894 156 810 194 847 b 108 981 194 942 156 981 b 24 894 61 981 24 942 z m 275 894 b 360 810 275 847 313 810 b 446 894 407 810 446 847 b 360 981 446 942 407 981 b 275 894 313 981 275 942 z "},"ó":{"ha":817,"x_min":0,"x_max":0,"o":"m 758 333 b 408 679 757 529 626 679 b 58 331 201 679 58 539 b 408 -14 58 117 199 -11 b 758 333 618 -10 758 118 z m 408 614 b 565 332 531 613 565 479 b 408 53 565 183 531 53 b 251 332 285 53 251 183 b 408 614 251 481 285 615 z m 497 1004 b 342 764 460 954 365 799 l 365 739 l 669 968 l 650 1010 l 501 1010 z "},"ò":{"ha":817,"x_min":0,"x_max":0,"o":"m 758 333 b 408 679 757 529 626 679 b 58 331 201 679 58 539 b 408 -14 58 117 199 -11 b 758 333 618 -10 758 118 z m 408 614 b 565 332 531 613 565 479 b 408 53 565 183 531 53 b 251 332 285 53 251 183 b 408 614 251 481 285 615 z m 357 1010 l 208 1010 l 189 968 l 493 739 l 517 764 b 361 1004 493 799 399 954 z "},"ô":{"ha":817,"x_min":0,"x_max":0,"o":"m 758 333 b 408 679 757 529 626 679 b 58 331 201 679 58 539 b 408 -14 58 117 199 -11 b 758 333 618 -10 758 118 z m 408 614 b 565 332 531 613 565 479 b 408 53 565 183 531 53 b 251 332 285 53 251 183 b 408 614 251 481 285 615 z m 644 786 l 418 1019 l 190 785 l 211 756 l 418 867 l 619 756 z "},"ö":{"ha":817,"x_min":0,"x_max":0,"o":"m 758 333 b 408 679 757 529 626 679 b 58 331 201 679 58 539 b 408 -14 58 117 199 -11 b 758 333 618 -10 758 118 z m 408 614 b 565 332 531 613 565 479 b 408 53 565 183 531 53 b 251 332 285 53 251 183 b 408 614 251 481 285 615 z m 207 894 b 292 810 207 847 244 810 b 378 894 339 810 378 847 b 292 981 378 942 339 981 b 207 894 244 981 207 942 z m 458 894 b 543 810 458 847 496 810 b 629 894 590 810 629 847 b 543 981 629 942 590 981 b 458 894 496 981 458 942 z "},"ü":{"ha":844,"x_min":0,"x_max":0,"o":"m 717 707 l 632 654 l 632 656 l 450 544 l 550 493 l 550 192 b 422 88 542 153 515 88 b 293 276 319 88 294 160 l 294 707 l 210 654 l 210 656 l 28 544 l 126 494 l 126 226 b 349 -15 126 68 217 -15 b 560 101 456 -15 517 28 l 592 -32 l 817 81 l 717 150 z m 463 894 b 547 810 463 847 500 810 b 633 894 594 810 633 847 b 547 981 633 942 594 981 b 463 894 500 981 463 942 z m 211 894 b 296 810 211 847 249 810 b 382 894 343 810 382 847 b 296 981 382 942 343 981 b 211 894 249 981 211 942 z "},"Ä":{"ha":1075,"x_min":0,"x_max":0,"o":"m 14 0 l 344 0 l 225 92 l 306 290 l 650 290 l 719 104 l 585 0 l 1047 0 l 944 89 l 581 1010 l 507 1010 l 131 113 z m 485 732 l 621 369 l 338 369 z m 283 1226 b 372 1138 283 1176 324 1138 b 463 1226 422 1138 463 1176 b 372 1317 463 1276 422 1317 b 283 1226 324 1317 283 1276 z m 576 1226 b 665 1138 576 1176 615 1138 b 756 1226 714 1138 756 1176 b 665 1317 756 1276 714 1317 b 576 1226 615 1317 576 1276 z "},"Ë":{"ha":1028,"x_min":0,"x_max":0,"o":"m 35 0 l 903 0 l 958 401 l 736 86 l 374 86 l 374 467 l 553 467 l 683 272 l 683 746 l 553 551 l 374 551 l 374 918 l 678 918 l 911 624 l 883 997 l 35 997 l 179 885 l 179 111 z m 254 1226 b 343 1138 254 1176 294 1138 b 433 1226 393 1138 433 1176 b 343 1317 433 1276 393 1317 b 254 1226 294 1317 254 1276 z m 547 1226 b 636 1138 547 1176 586 1138 b 726 1226 685 1138 726 1176 b 636 1317 726 1276 685 1317 b 547 1226 586 1317 547 1276 z "},"Ö":{"ha":1126,"x_min":0,"x_max":0,"o":"m 1063 499 b 563 1026 1061 796 879 1026 b 63 496 263 1026 63 810 b 563 -32 63 172 258 -28 b 1063 499 868 -26 1064 175 z m 563 944 b 844 497 768 943 844 721 b 563 50 844 272 768 50 b 281 497 356 50 281 271 b 563 944 281 722 357 946 z m 326 1226 b 415 1138 326 1176 367 1138 b 506 1226 465 1138 506 1176 b 415 1317 506 1276 465 1317 b 326 1226 367 1317 326 1276 z m 619 1226 b 708 1138 619 1176 658 1138 b 799 1226 757 1138 799 1176 b 708 1317 799 1276 757 1317 b 619 1226 658 1317 619 1276 z "},"Ü":{"ha":1118,"x_min":0,"x_max":0,"o":"m 1108 997 l 736 997 l 871 892 l 872 444 b 615 72 872 172 774 72 b 367 368 413 72 367 204 l 367 890 l 504 997 l 14 997 l 158 885 l 158 397 b 574 -36 158 146 250 -36 b 974 431 896 -36 974 200 l 974 893 z m 389 1226 b 478 1138 389 1176 429 1138 b 568 1226 528 1138 568 1176 b 478 1317 568 1276 528 1317 b 389 1226 429 1317 389 1276 z m 682 1226 b 771 1138 682 1176 721 1138 b 861 1226 819 1138 861 1176 b 771 1317 861 1276 819 1317 b 682 1226 721 1317 682 1276 z "},"Ï":{"ha":601,"x_min":0,"x_max":0,"o":"m 546 997 l 56 997 l 200 885 l 200 111 l 56 0 l 546 0 l 394 117 l 394 879 z m 65 1226 b 154 1138 65 1176 106 1138 b 244 1226 204 1138 244 1176 b 154 1317 244 1276 204 1317 b 65 1226 106 1317 65 1276 z m 358 1226 b 447 1138 358 1176 397 1138 b 538 1226 496 1138 538 1176 b 447 1317 538 1276 496 1317 b 358 1226 397 1317 358 1276 z "},"Á":{"ha":1075,"x_min":0,"x_max":0,"o":"m 14 0 l 344 0 l 225 92 l 306 290 l 650 290 l 719 104 l 585 0 l 1047 0 l 944 89 l 581 1010 l 507 1010 l 131 113 z m 485 732 l 621 369 l 338 369 z m 418 1096 l 442 1071 l 829 1258 l 810 1301 l 633 1301 z "},"Ó":{"ha":1126,"x_min":0,"x_max":0,"o":"m 1063 499 b 563 1026 1061 796 879 1026 b 63 496 263 1026 63 810 b 563 -32 63 172 258 -28 b 1063 499 868 -26 1064 175 z m 563 944 b 844 497 768 943 844 721 b 563 50 844 272 768 50 b 281 497 356 50 281 271 b 563 944 281 722 357 946 z m 454 1096 l 478 1071 l 865 1258 l 846 1301 l 669 1301 z "},"Ú":{"ha":1118,"x_min":0,"x_max":0,"o":"m 1108 997 l 736 997 l 871 892 l 872 444 b 615 72 872 172 774 72 b 367 368 413 72 367 204 l 367 890 l 504 997 l 14 997 l 158 885 l 158 397 b 574 -36 158 146 250 -36 b 974 431 896 -36 974 200 l 974 893 z m 532 1096 l 556 1071 l 943 1258 l 924 1301 l 747 1301 z "},"Í":{"ha":601,"x_min":0,"x_max":0,"o":"m 546 997 l 56 997 l 200 885 l 200 111 l 56 0 l 546 0 l 394 117 l 394 879 z m 182 1096 l 206 1071 l 593 1258 l 574 1301 l 397 1301 z "},"À":{"ha":1075,"x_min":0,"x_max":0,"o":"m 14 0 l 344 0 l 225 92 l 306 290 l 650 290 l 719 104 l 585 0 l 1047 0 l 944 89 l 581 1010 l 507 1010 l 131 113 z m 485 732 l 621 369 l 338 369 z m 396 1301 l 219 1301 l 200 1258 l 588 1071 l 611 1096 z "},"Ò":{"ha":1126,"x_min":0,"x_max":0,"o":"m 1063 499 b 563 1026 1061 796 879 1026 b 63 496 263 1026 63 810 b 563 -32 63 172 258 -28 b 1063 499 868 -26 1064 175 z m 563 944 b 844 497 768 943 844 721 b 563 50 844 272 768 50 b 281 497 356 50 281 271 b 563 944 281 722 357 946 z m 483 1301 l 307 1301 l 288 1258 l 675 1071 l 699 1096 z "},"Ù":{"ha":1118,"x_min":0,"x_max":0,"o":"m 1108 997 l 736 997 l 871 892 l 872 444 b 615 72 872 172 774 72 b 367 368 413 72 367 204 l 367 890 l 504 997 l 14 997 l 158 885 l 158 397 b 574 -36 158 146 250 -36 b 974 431 896 -36 974 200 l 974 893 z m 493 1301 l 317 1301 l 297 1258 l 685 1071 l 708 1096 z "},"Ì":{"ha":601,"x_min":0,"x_max":0,"o":"m 546 997 l 56 997 l 200 885 l 200 111 l 56 0 l 546 0 l 394 117 l 394 879 z m 194 1301 l 18 1301 l -1 1258 l 386 1071 l 410 1096 z "},"Â":{"ha":1075,"x_min":0,"x_max":0,"o":"m 14 0 l 344 0 l 225 92 l 306 290 l 650 290 l 719 104 l 585 0 l 1047 0 l 944 89 l 581 1010 l 507 1010 l 131 113 z m 485 732 l 621 369 l 338 369 z m 793 1099 l 539 1332 l 283 1097 l 304 1068 l 539 1179 l 768 1068 z "},"Ô":{"ha":1126,"x_min":0,"x_max":0,"o":"m 1063 499 b 563 1026 1061 796 879 1026 b 63 496 263 1026 63 810 b 563 -32 63 172 258 -28 b 1063 499 868 -26 1064 175 z m 563 944 b 844 497 768 943 844 721 b 563 50 844 272 768 50 b 281 497 356 50 281 271 b 563 944 281 722 357 946 z m 818 1099 l 564 1332 l 308 1097 l 329 1068 l 564 1179 l 793 1068 z "},"Û":{"ha":1118,"x_min":0,"x_max":0,"o":"m 1108 997 l 736 997 l 871 892 l 872 444 b 615 72 872 172 774 72 b 367 368 413 72 367 204 l 367 890 l 504 997 l 14 997 l 158 885 l 158 397 b 574 -36 158 146 250 -36 b 974 431 896 -36 974 200 l 974 893 z m 883 1099 l 629 1332 l 374 1097 l 394 1068 l 629 1179 l 858 1068 z "},"Î":{"ha":601,"x_min":0,"x_max":0,"o":"m 546 997 l 56 997 l 200 885 l 200 111 l 56 0 l 546 0 l 394 117 l 394 879 z m 557 1099 l 303 1332 l 47 1097 l 68 1068 l 303 1179 l 532 1068 z "},"ÿ":{"ha":731,"x_min":0,"x_max":0,"o":"m 794 665 l 610 665 l 608 663 l 608 665 l 475 665 l 565 567 l 408 214 l 243 579 l 349 665 l -68 665 l 75 557 l 321 19 l 288 -56 b 176 -169 269 -86 235 -169 b 92 -39 132 -169 78 -142 l -64 -218 b 119 -329 -28 -292 26 -329 b 353 -99 235 -329 301 -221 l 643 553 z m 196 894 b 281 810 196 847 233 810 b 367 894 328 810 367 847 b 281 981 367 942 328 981 b 196 894 233 981 196 942 z m 447 894 b 532 810 447 847 485 810 b 618 894 579 810 618 847 b 532 981 618 942 579 981 b 447 894 485 981 447 942 z "},"Ÿ":{"ha":1051,"x_min":0,"x_max":0,"o":"m 285 0 l 775 0 l 624 117 l 624 397 l 921 896 l 1051 997 l 679 997 l 819 888 l 590 485 l 363 897 l 490 997 l 0 997 l 153 878 l 429 376 l 429 111 z m 365 1226 b 454 1138 365 1176 406 1138 b 544 1226 504 1138 544 1176 b 454 1317 544 1276 504 1317 b 365 1226 406 1317 365 1276 z m 658 1226 b 747 1138 658 1176 697 1138 b 838 1226 796 1138 838 1176 b 747 1317 838 1276 796 1317 b 658 1226 697 1317 658 1276 z "},"œ":{"ha":1244,"x_min":0,"x_max":0,"o":"m 883 -14 b 1176 256 1029 -14 1176 99 b 944 108 1122 168 1081 108 b 738 326 839 108 738 178 l 738 360 l 1182 360 l 1182 429 l 1181 429 b 900 679 1167 622 1014 679 b 660 569 818 679 719 644 b 408 679 600 643 506 679 b 63 331 201 679 63 539 b 408 -14 63 117 199 -11 b 654 86 483 -12 599 17 b 883 -14 703 18 797 -14 z m 408 614 b 565 332 531 613 565 479 b 408 53 565 183 531 53 b 251 332 285 53 251 183 b 408 614 251 481 285 615 z m 890 614 b 1018 429 993 614 1018 551 l 739 429 b 890 614 742 543 804 614 z "},"æ":{"ha":1147,"x_min":0,"x_max":0,"o":"m 786 -14 b 1079 256 932 -14 1079 99 b 847 108 1025 168 983 108 b 640 326 742 108 640 178 l 640 360 l 1085 360 l 1085 429 l 1083 429 b 803 679 1069 622 917 679 b 569 589 707 679 626 646 b 382 686 533 661 465 686 l 358 686 b 86 493 211 686 86 575 b 183 381 86 429 119 381 b 282 478 235 381 282 424 b 204 583 282 525 265 560 b 335 619 225 611 292 619 b 475 474 407 619 469 568 l 474 474 b 236 314 475 353 339 338 b 63 139 147 293 63 236 b 251 -19 63 56 118 -19 b 507 147 378 -19 474 51 b 786 -14 554 53 649 -14 z m 793 614 b 921 429 896 614 921 551 l 642 429 b 793 614 644 543 707 614 z m 339 269 b 471 353 386 288 436 313 b 469 311 469 339 469 325 b 483 210 469 276 474 242 b 306 85 454 118 374 85 b 233 151 269 85 233 110 b 339 269 233 204 261 236 z "},"Ç":{"ha":1060,"x_min":0,"x_max":0,"o":"m 553 -25 b 797 72 640 -22 724 3 l 943 -42 l 943 410 b 572 67 871 306 768 67 b 288 511 374 67 288 272 b 569 924 288 750 403 924 b 943 581 749 924 821 769 l 943 1032 l 804 924 b 576 1019 735 988 646 1019 b 69 468 272 1019 69 818 b 486 -22 69 206 231 3 l 399 -140 b 492 -231 460 -153 492 -189 b 319 -342 492 -312 408 -336 b 417 -376 344 -367 379 -376 b 642 -214 501 -376 642 -343 b 511 -78 642 -147 575 -94 z "},"˚":{"ha":1157,"x_min":0,"x_max":0,"o":"m 160 803 b 311 690 160 726 226 690 b 464 803 396 690 464 726 b 311 917 464 879 396 917 b 160 803 226 917 160 879 z m 251 804 b 313 872 251 856 279 872 b 374 804 346 872 374 856 b 313 738 374 753 346 738 b 251 804 279 738 251 753 z "},"å":{"ha":758,"x_min":0,"x_max":0,"o":"m 461 474 b 231 314 463 353 331 338 b 63 139 144 293 63 236 b 232 -19 63 76 103 -19 b 463 107 324 -19 419 32 l 497 0 l 725 0 l 619 110 b 621 444 619 174 621 388 b 372 686 621 631 493 686 l 350 686 b 85 493 207 686 85 575 b 179 381 85 429 118 381 b 275 478 229 381 275 424 b 200 583 275 525 260 560 b 326 619 219 611 285 619 b 463 474 396 619 457 568 z m 243 897 b 394 785 243 821 310 785 b 547 897 479 785 547 821 b 394 1011 547 974 479 1011 b 243 897 310 1011 243 974 z m 299 85 b 228 151 263 85 228 110 b 331 269 228 204 256 236 b 461 357 376 288 428 314 l 458 189 b 299 85 428 115 349 85 z m 335 899 b 396 967 335 950 363 967 b 457 899 429 967 457 950 b 396 832 457 847 429 832 b 335 899 363 832 335 847 z "},"Å":{"ha":1075,"x_min":0,"x_max":0,"o":"m 14 0 l 344 0 l 225 92 l 306 290 l 650 290 l 719 104 l 585 0 l 1047 0 l 944 89 l 581 1010 l 507 1010 l 131 113 z m 365 1225 b 522 1104 365 1143 435 1104 b 682 1225 611 1104 682 1143 b 522 1346 682 1306 611 1346 b 365 1225 435 1346 365 1306 z m 485 732 l 621 369 l 338 369 z m 461 1225 b 524 1299 461 1281 489 1299 b 588 1225 560 1299 588 1281 b 524 1154 588 1171 560 1154 b 461 1225 489 1154 461 1171 z "},"˜":{"ha":1157,"x_min":0,"x_max":0,"o":"m 333 672 b 453 842 417 674 449 763 l 438 844 b 346 788 436 825 418 788 b 160 847 292 788 229 847 b 39 682 83 847 43 761 l 54 679 b 146 736 56 713 83 736 b 333 672 215 736 271 671 z "},"ñ":{"ha":867,"x_min":0,"x_max":0,"o":"m 479 0 l 854 0 l 746 97 l 747 438 b 522 679 747 596 654 679 b 304 560 414 679 349 635 l 272 696 l 147 613 l 147 611 l 47 544 l 147 483 l 147 97 l 47 0 l 422 0 l 314 97 l 314 463 b 451 579 321 501 350 579 b 556 533 501 579 536 564 b 581 396 576 501 581 469 l 579 97 z m 557 797 b 676 967 640 799 672 888 l 661 969 b 569 913 660 950 642 913 b 383 972 515 913 453 972 b 263 807 307 972 267 886 l 278 804 b 369 861 279 838 307 861 b 557 797 439 861 494 796 z "},"ã":{"ha":758,"x_min":0,"x_max":0,"o":"m 461 474 b 231 314 463 353 331 338 b 63 139 144 293 63 236 b 232 -19 63 76 103 -19 b 463 107 324 -19 419 32 l 497 0 l 725 0 l 619 110 b 621 444 619 174 621 388 b 372 686 621 631 493 686 l 350 686 b 85 493 207 686 85 575 b 179 381 85 429 118 381 b 275 478 229 381 275 424 b 200 583 275 525 260 560 b 326 619 219 611 285 619 b 463 474 396 619 457 568 z m 482 797 b 601 967 565 799 597 888 l 586 969 b 494 913 585 950 567 913 b 308 972 440 913 378 972 b 188 807 232 972 192 886 l 203 804 b 294 861 204 838 232 861 b 482 797 364 861 419 796 z m 299 85 b 228 151 263 85 228 110 b 331 269 228 204 256 236 b 461 357 376 288 428 314 l 458 189 b 299 85 428 115 349 85 z "},"õ":{"ha":817,"x_min":0,"x_max":0,"o":"m 758 333 b 408 679 757 529 626 679 b 58 331 201 679 58 539 b 408 -14 58 117 199 -11 b 758 333 618 -10 758 118 z m 408 614 b 565 332 531 613 565 479 b 408 53 565 183 531 53 b 251 332 285 53 251 183 b 408 614 251 481 285 615 z m 521 797 b 640 967 604 799 636 888 l 625 969 b 533 913 624 950 606 913 b 347 972 479 913 417 972 b 226 807 271 972 231 886 l 242 804 b 333 861 243 838 271 861 b 521 797 403 861 458 796 z "},"Ý":{"ha":1051,"x_min":0,"x_max":0,"o":"m 285 0 l 775 0 l 624 117 l 624 397 l 921 896 l 1051 997 l 679 997 l 819 888 l 590 485 l 363 897 l 490 997 l 0 997 l 153 878 l 429 376 l 429 111 z m 522 1096 l 546 1071 l 933 1258 l 914 1301 l 738 1301 z "},"Ã":{"ha":1075,"x_min":0,"x_max":0,"o":"m 14 0 l 344 0 l 225 92 l 306 290 l 650 290 l 719 104 l 585 0 l 1047 0 l 944 89 l 581 1010 l 507 1010 l 131 113 z m 638 1111 b 774 1296 732 1113 769 1210 l 756 1299 b 651 1236 754 1278 733 1236 b 439 1301 590 1236 518 1301 b 301 1122 353 1301 306 1208 l 319 1119 b 424 1181 321 1156 353 1181 b 638 1111 503 1181 567 1110 z m 485 732 l 621 369 l 338 369 z "},"Õ":{"ha":1126,"x_min":0,"x_max":0,"o":"m 1063 499 b 563 1026 1061 796 879 1026 b 63 496 263 1026 63 810 b 563 -32 63 172 258 -28 b 1063 499 868 -26 1064 175 z m 563 944 b 844 497 768 943 844 721 b 563 50 844 272 768 50 b 281 497 356 50 281 271 b 563 944 281 722 357 946 z m 690 1117 b 826 1301 785 1118 822 1215 l 808 1304 b 704 1242 807 1283 786 1242 b 492 1307 643 1242 571 1307 b 354 1128 406 1307 358 1214 l 372 1125 b 476 1186 374 1161 406 1186 b 690 1117 556 1186 619 1115 z "},"Ñ":{"ha":1132,"x_min":0,"x_max":0,"o":"m 1111 997 l 739 997 l 876 890 l 876 378 l 268 997 l 21 997 l 164 865 l 164 110 l 22 0 l 394 0 l 257 107 l 257 708 l 969 -21 l 969 888 z m 665 1115 b 801 1300 760 1117 797 1214 l 783 1303 b 679 1240 782 1282 761 1240 b 467 1306 618 1240 546 1306 b 329 1126 381 1306 333 1213 l 347 1124 b 451 1185 349 1160 381 1185 b 665 1115 531 1185 594 1114 z "},"Œ":{"ha":1599,"x_min":0,"x_max":0,"o":"m 749 0 l 1515 0 l 1571 401 l 1349 86 l 986 86 l 986 467 l 1165 467 l 1296 272 l 1296 746 l 1165 551 l 986 551 l 986 918 l 1326 918 l 1515 638 l 1501 997 l 743 997 b 563 1026 689 1015 629 1026 b 63 496 263 1026 63 810 b 563 -32 63 172 258 -28 b 749 0 631 -31 692 -19 z m 563 944 b 792 799 681 943 769 881 l 792 163 b 563 50 753 92 674 50 b 281 497 356 50 281 271 b 563 944 281 722 357 946 z "},"Æ":{"ha":1429,"x_min":0,"x_max":0,"o":"m 478 0 l 1346 0 l 1401 401 l 1179 86 l 817 86 l 817 446 l 996 446 l 1126 251 l 1126 725 l 996 531 l 817 531 l 817 918 l 1157 918 l 1346 638 l 1332 997 l 433 997 l 533 917 l 101 132 l -33 0 l 294 0 l 192 83 l 385 450 l 622 450 l 622 111 z m 622 899 l 622 529 l 426 529 z "},"€":{"ha":935,"x_min":0,"x_max":0,"o":"m 69 347 l 182 347 b 561 -25 219 129 358 -25 b 754 56 635 -25 697 -3 l 851 -42 l 851 324 b 789 201 832 286 813 243 b 592 51 744 124 699 51 b 388 347 476 51 411 176 l 694 347 l 708 431 l 378 431 b 376 511 376 457 376 483 b 378 561 376 528 376 544 l 736 561 l 750 644 l 385 644 b 603 943 411 825 489 943 b 776 813 675 943 731 885 b 851 667 806 767 817 736 l 851 1032 l 760 940 b 571 1019 706 993 639 1019 b 186 644 363 1019 229 885 l 83 644 l 69 561 l 175 561 b 172 468 174 531 172 500 b 174 431 172 456 172 443 l 83 431 z "},"$":{"ha":889,"x_min":0,"x_max":0,"o":"m 397 -89 l 472 -89 l 472 -8 b 778 268 667 -1 778 119 b 547 575 778 446 656 521 l 472 606 l 472 939 b 763 556 601 919 654 806 l 765 1029 l 656 951 b 472 1017 604 985 535 1013 l 472 1088 l 397 1088 l 397 1014 b 111 733 238 997 111 911 b 338 446 111 560 276 475 b 397 421 356 438 376 429 l 397 75 b 118 456 286 103 203 240 l 114 -15 l 224 61 b 397 -4 268 29 325 4 z m 610 222 b 472 71 610 128 551 81 l 472 388 b 610 222 544 350 610 301 z m 272 794 b 397 940 272 864 328 926 l 397 639 b 272 794 315 678 272 715 z "},"G":{"ha":1175,"x_min":0,"x_max":0,"o":"m 1006 -44 l 1006 364 l 1154 475 l 663 475 l 797 376 l 797 253 b 586 67 793 131 721 67 b 288 511 368 67 288 272 b 597 924 288 750 414 924 b 985 581 776 924 863 769 l 985 1032 l 844 922 b 604 1019 769 988 674 1019 b 69 468 283 1019 69 818 b 551 -25 69 188 247 -25 b 868 94 664 -25 783 4 z m 660 475 l 663 475 l 660 478 z "}}}
